<svg width="541" height="525" viewBox="0 0 541 525" fill="none" xmlns="http://www.w3.org/2000/svg">
<path d="M423.682 320.887C437.755 354.134 466.975 386.667 475.495 393.551C437.145 365.688 391.745 375.77 377.961 388.047C388.562 373.457 430.394 378.959 411.538 358.89C428.197 361.364 427.283 342.134 423.682 320.887C417.17 305.502 413.902 289.963 417.43 276.742C417.694 274.25 418.324 272.304 419.44 271.064C418.615 272.901 417.949 274.797 417.43 276.742C416.404 286.405 420.866 304.263 423.682 320.887Z" fill="#B4FF72"/>
<g filter="url(#filter0_f_2177_1152)">
<ellipse cx="268.419" cy="262.278" rx="130.329" ry="120.694" transform="rotate(180 268.419 262.278)" fill="#AEFA9B"/>
</g>
<rect x="138.09" y="319.926" width="288.001" height="128.074" rx="16.5899" fill="url(#paint0_linear_2177_1152)"/>
<path d="M244.593 384.767C242.809 384.767 241.219 384.461 239.825 383.847C238.439 383.226 237.343 382.373 236.538 381.29C235.742 380.198 235.331 378.94 235.308 377.513H240.518C240.55 378.111 240.745 378.637 241.104 379.091C241.47 379.537 241.956 379.884 242.562 380.131C243.167 380.378 243.848 380.501 244.605 380.501C245.394 380.501 246.091 380.362 246.696 380.083C247.302 379.804 247.776 379.418 248.119 378.924C248.461 378.43 248.632 377.86 248.632 377.215C248.632 376.561 248.449 375.984 248.083 375.482C247.724 374.972 247.206 374.574 246.529 374.287C245.86 374 245.063 373.857 244.139 373.857H241.856V370.056H244.139C244.92 370.056 245.609 369.921 246.206 369.65C246.812 369.379 247.282 369.005 247.617 368.527C247.951 368.041 248.119 367.475 248.119 366.83C248.119 366.216 247.971 365.678 247.676 365.216C247.39 364.746 246.983 364.38 246.457 364.117C245.94 363.854 245.334 363.723 244.641 363.723C243.94 363.723 243.299 363.85 242.717 364.105C242.135 364.352 241.669 364.706 241.319 365.169C240.968 365.631 240.781 366.172 240.757 366.794H235.798C235.821 365.384 236.224 364.141 237.005 363.065C237.785 361.99 238.837 361.149 240.16 360.544C241.49 359.93 242.992 359.624 244.665 359.624C246.354 359.624 247.832 359.93 249.099 360.544C250.365 361.157 251.349 361.986 252.05 363.029C252.759 364.065 253.11 365.228 253.102 366.519C253.11 367.889 252.684 369.033 251.823 369.949C250.971 370.865 249.859 371.447 248.489 371.694V371.885C250.29 372.116 251.66 372.741 252.6 373.761C253.548 374.773 254.018 376.04 254.01 377.561C254.018 378.956 253.616 380.194 252.803 381.278C251.999 382.361 250.887 383.214 249.469 383.835C248.051 384.457 246.426 384.767 244.593 384.767ZM255.711 384.433V380.704L264.423 372.638C265.164 371.921 265.785 371.275 266.287 370.702C266.797 370.128 267.183 369.566 267.446 369.017C267.709 368.459 267.84 367.857 267.84 367.212C267.84 366.495 267.677 365.878 267.35 365.36C267.024 364.834 266.578 364.432 266.012 364.153C265.446 363.866 264.805 363.723 264.088 363.723C263.339 363.723 262.686 363.874 262.128 364.177C261.57 364.479 261.14 364.914 260.837 365.479C260.535 366.045 260.383 366.718 260.383 367.499H255.472C255.472 365.898 255.834 364.507 256.559 363.328C257.284 362.149 258.3 361.237 259.607 360.592C260.913 359.946 262.419 359.624 264.124 359.624C265.877 359.624 267.402 359.934 268.701 360.556C270.007 361.169 271.023 362.022 271.748 363.113C272.473 364.205 272.836 365.455 272.836 366.866C272.836 367.79 272.653 368.702 272.286 369.602C271.928 370.503 271.286 371.502 270.362 372.602C269.438 373.693 268.135 375.004 266.454 376.534L262.881 380.035V380.202H273.158V384.433H255.711ZM277.912 384.744C277.124 384.744 276.446 384.465 275.881 383.907C275.323 383.341 275.044 382.664 275.044 381.875C275.044 381.095 275.323 380.425 275.881 379.868C276.446 379.31 277.124 379.031 277.912 379.031C278.677 379.031 279.346 379.31 279.92 379.868C280.494 380.425 280.78 381.095 280.78 381.875C280.78 382.401 280.645 382.883 280.374 383.321C280.111 383.752 279.765 384.098 279.334 384.361C278.904 384.616 278.43 384.744 277.912 384.744ZM282.523 380.131V376.056L292.74 359.958H296.254V365.599H294.174L287.733 375.793V375.984H302.253V380.131H282.523ZM294.27 384.433V378.888L294.366 377.083V359.958H299.218V384.433H294.27ZM317.078 379.844V378.553C317.078 377.573 317.285 376.673 317.7 375.852C318.122 375.024 318.731 374.363 319.528 373.869C320.333 373.367 321.313 373.116 322.468 373.116C323.639 373.116 324.623 373.363 325.42 373.857C326.224 374.351 326.83 375.012 327.236 375.84C327.65 376.661 327.858 377.565 327.858 378.553V379.844C327.858 380.824 327.65 381.728 327.236 382.557C326.822 383.377 326.212 384.035 325.408 384.528C324.603 385.03 323.623 385.281 322.468 385.281C321.297 385.281 320.313 385.03 319.516 384.528C318.719 384.035 318.114 383.377 317.7 382.557C317.285 381.728 317.078 380.824 317.078 379.844ZM320.556 378.553V379.844C320.556 380.41 320.691 380.943 320.962 381.445C321.241 381.947 321.743 382.198 322.468 382.198C323.193 382.198 323.687 381.951 323.95 381.457C324.221 380.963 324.356 380.425 324.356 379.844V378.553C324.356 377.972 324.229 377.43 323.974 376.928C323.719 376.426 323.217 376.175 322.468 376.175C321.751 376.175 321.253 376.426 320.974 376.928C320.695 377.43 320.556 377.972 320.556 378.553ZM304.518 365.838V364.547C304.518 363.559 304.729 362.655 305.151 361.834C305.574 361.006 306.183 360.345 306.98 359.851C307.785 359.357 308.757 359.11 309.896 359.11C311.075 359.11 312.063 359.357 312.86 359.851C313.656 360.345 314.262 361.006 314.676 361.834C315.09 362.655 315.298 363.559 315.298 364.547V365.838C315.298 366.826 315.086 367.73 314.664 368.551C314.25 369.371 313.64 370.028 312.836 370.522C312.039 371.008 311.059 371.251 309.896 371.251C308.733 371.251 307.749 371.004 306.944 370.51C306.147 370.009 305.542 369.351 305.128 368.539C304.721 367.718 304.518 366.818 304.518 365.838ZM308.02 364.547V365.838C308.02 366.419 308.155 366.957 308.426 367.451C308.705 367.945 309.195 368.192 309.896 368.192C310.629 368.192 311.127 367.945 311.39 367.451C311.661 366.957 311.796 366.419 311.796 365.838V364.547C311.796 363.966 311.669 363.424 311.414 362.922C311.159 362.42 310.653 362.169 309.896 362.169C309.187 362.169 308.697 362.424 308.426 362.934C308.155 363.444 308.02 363.981 308.02 364.547ZM306.096 384.433L322.922 359.958H326.053L309.227 384.433H306.096Z" fill="#212426"/>
<path d="M212.896 404.087V395.4H215.832C216.513 395.4 217.07 395.523 217.503 395.769C217.938 396.012 218.261 396.342 218.47 396.757C218.679 397.173 218.784 397.637 218.784 398.149C218.784 398.661 218.679 399.126 218.47 399.544C218.264 399.963 217.944 400.296 217.511 400.545C217.079 400.791 216.524 400.914 215.849 400.914H213.745V399.981H215.815C216.281 399.981 216.656 399.901 216.939 399.739C217.221 399.578 217.427 399.36 217.554 399.086C217.684 398.809 217.749 398.497 217.749 398.149C217.749 397.801 217.684 397.49 217.554 397.216C217.427 396.941 217.22 396.726 216.934 396.571C216.649 396.412 216.27 396.333 215.798 396.333H213.948V404.087H212.896ZM219.626 404.087V397.572H220.593V398.556H220.661C220.78 398.234 220.995 397.972 221.306 397.771C221.617 397.57 221.967 397.47 222.358 397.47C222.431 397.47 222.523 397.471 222.633 397.474C222.744 397.477 222.827 397.481 222.884 397.487V398.505C222.85 398.497 222.772 398.484 222.65 398.467C222.532 398.447 222.406 398.437 222.273 398.437C221.956 398.437 221.673 398.504 221.425 398.637C221.178 398.767 220.983 398.948 220.839 399.179C220.698 399.409 220.627 399.67 220.627 399.964V404.087H219.626ZM225.887 404.223C225.259 404.223 224.718 404.084 224.262 403.807C223.81 403.527 223.461 403.137 223.215 402.636C222.972 402.133 222.85 401.548 222.85 400.88C222.85 400.213 222.972 399.625 223.215 399.116C223.461 398.604 223.803 398.205 224.241 397.92C224.682 397.631 225.197 397.487 225.785 397.487C226.125 397.487 226.46 397.544 226.79 397.657C227.121 397.77 227.423 397.954 227.694 398.208C227.965 398.46 228.182 398.793 228.343 399.209C228.504 399.625 228.585 400.137 228.585 400.745V401.169H223.563V400.304H227.567C227.567 399.936 227.493 399.608 227.346 399.319C227.202 399.031 226.996 398.803 226.727 398.637C226.461 398.47 226.147 398.386 225.785 398.386C225.386 398.386 225.041 398.485 224.75 398.683C224.462 398.878 224.24 399.133 224.084 399.447C223.929 399.761 223.851 400.097 223.851 400.456V401.033C223.851 401.525 223.936 401.942 224.105 402.284C224.278 402.624 224.517 402.883 224.822 403.061C225.128 403.236 225.483 403.324 225.887 403.324C226.15 403.324 226.388 403.287 226.6 403.213C226.815 403.137 227 403.024 227.155 402.874C227.311 402.721 227.431 402.532 227.516 402.306L228.483 402.577C228.381 402.905 228.21 403.194 227.97 403.442C227.729 403.688 227.432 403.881 227.079 404.019C226.725 404.155 226.328 404.223 225.887 404.223ZM234.006 399.031L233.107 399.286C233.05 399.136 232.967 398.99 232.856 398.849C232.749 398.704 232.602 398.586 232.415 398.492C232.229 398.399 231.99 398.352 231.698 398.352C231.3 398.352 230.967 398.444 230.702 398.628C230.439 398.809 230.307 399.039 230.307 399.319C230.307 399.568 230.398 399.765 230.579 399.909C230.76 400.053 231.042 400.173 231.427 400.27L232.394 400.507C232.977 400.649 233.411 400.865 233.696 401.156C233.982 401.445 234.125 401.816 234.125 402.272C234.125 402.645 234.017 402.979 233.802 403.273C233.59 403.567 233.293 403.799 232.911 403.968C232.53 404.138 232.086 404.223 231.58 404.223C230.915 404.223 230.365 404.079 229.93 403.79C229.494 403.502 229.218 403.08 229.102 402.526L230.053 402.289C230.143 402.639 230.314 402.902 230.566 403.078C230.82 403.253 231.153 403.341 231.563 403.341C232.029 403.341 232.4 403.242 232.674 403.044C232.951 402.843 233.09 402.603 233.09 402.323C233.09 402.096 233.01 401.907 232.852 401.754C232.694 401.599 232.451 401.483 232.123 401.406L231.037 401.152C230.44 401.01 230.002 400.791 229.722 400.494C229.445 400.195 229.306 399.82 229.306 399.37C229.306 399.003 229.409 398.678 229.616 398.395C229.825 398.112 230.109 397.89 230.468 397.729C230.83 397.568 231.24 397.487 231.698 397.487C232.343 397.487 232.849 397.628 233.217 397.911C233.587 398.194 233.85 398.567 234.006 399.031ZM237.647 404.223C237.019 404.223 236.477 404.084 236.022 403.807C235.569 403.527 235.22 403.137 234.974 402.636C234.731 402.133 234.609 401.548 234.609 400.88C234.609 400.213 234.731 399.625 234.974 399.116C235.22 398.604 235.562 398.205 236.001 397.92C236.442 397.631 236.957 397.487 237.545 397.487C237.884 397.487 238.219 397.544 238.55 397.657C238.881 397.77 239.182 397.954 239.453 398.208C239.725 398.46 239.941 398.793 240.102 399.209C240.264 399.625 240.344 400.137 240.344 400.745V401.169H235.322V400.304H239.326C239.326 399.936 239.253 399.608 239.106 399.319C238.961 399.031 238.755 398.803 238.486 398.637C238.221 398.47 237.907 398.386 237.545 398.386C237.146 398.386 236.801 398.485 236.51 398.683C236.221 398.878 235.999 399.133 235.844 399.447C235.688 399.761 235.61 400.097 235.61 400.456V401.033C235.61 401.525 235.695 401.942 235.865 402.284C236.037 402.624 236.276 402.883 236.582 403.061C236.887 403.236 237.242 403.324 237.647 403.324C237.91 403.324 238.147 403.287 238.359 403.213C238.574 403.137 238.759 403.024 238.915 402.874C239.07 402.721 239.191 402.532 239.275 402.306L240.242 402.577C240.141 402.905 239.97 403.194 239.729 403.442C239.489 403.688 239.192 403.881 238.838 404.019C238.485 404.155 238.088 404.223 237.647 404.223ZM242.151 400.168V404.087H241.15V397.572H242.117V398.59H242.202C242.355 398.259 242.587 397.993 242.898 397.792C243.209 397.589 243.611 397.487 244.103 397.487C244.544 397.487 244.93 397.577 245.261 397.758C245.591 397.937 245.849 398.208 246.033 398.573C246.216 398.935 246.308 399.393 246.308 399.947V404.087H245.307V400.015C245.307 399.503 245.174 399.105 244.909 398.819C244.643 398.53 244.278 398.386 243.814 398.386C243.495 398.386 243.209 398.456 242.957 398.594C242.708 398.733 242.512 398.935 242.368 399.201C242.224 399.466 242.151 399.789 242.151 400.168ZM250.254 397.572V398.42H246.878V397.572H250.254ZM247.862 396.011H248.863V402.221C248.863 402.504 248.904 402.716 248.986 402.857C249.071 402.996 249.178 403.089 249.308 403.137C249.441 403.182 249.581 403.205 249.728 403.205C249.839 403.205 249.929 403.199 250 403.188C250.071 403.174 250.127 403.162 250.17 403.154L250.373 404.053C250.305 404.079 250.211 404.104 250.089 404.13C249.967 404.158 249.813 404.172 249.627 404.172C249.344 404.172 249.067 404.111 248.795 403.99C248.527 403.868 248.303 403.683 248.125 403.434C247.95 403.185 247.862 402.871 247.862 402.492V396.011ZM252.961 404.24C252.548 404.24 252.173 404.162 251.837 404.007C251.5 403.848 251.233 403.621 251.035 403.324C250.837 403.024 250.738 402.662 250.738 402.238C250.738 401.864 250.812 401.562 250.959 401.33C251.106 401.095 251.302 400.912 251.548 400.779C251.794 400.646 252.066 400.547 252.363 400.482C252.662 400.414 252.964 400.36 253.266 400.32C253.662 400.27 253.983 400.231 254.229 400.206C254.478 400.178 254.659 400.131 254.772 400.066C254.888 400.001 254.946 399.888 254.946 399.727V399.693C254.946 399.274 254.831 398.949 254.602 398.717C254.376 398.485 254.033 398.369 253.572 398.369C253.094 398.369 252.719 398.474 252.448 398.683C252.176 398.892 251.985 399.116 251.875 399.353L250.925 399.014C251.094 398.618 251.321 398.31 251.603 398.089C251.889 397.866 252.2 397.71 252.537 397.623C252.876 397.532 253.21 397.487 253.538 397.487C253.747 397.487 253.987 397.512 254.259 397.563C254.533 397.611 254.797 397.712 255.052 397.865C255.309 398.017 255.523 398.248 255.692 398.556C255.862 398.864 255.947 399.277 255.947 399.795V404.087H254.946V403.205H254.895C254.827 403.346 254.714 403.498 254.556 403.659C254.397 403.82 254.187 403.957 253.924 404.07C253.661 404.183 253.34 404.24 252.961 404.24ZM253.113 403.341C253.509 403.341 253.843 403.263 254.115 403.107C254.389 402.952 254.595 402.751 254.734 402.505C254.875 402.259 254.946 402 254.946 401.729V400.813C254.903 400.863 254.81 400.91 254.666 400.953C254.525 400.992 254.361 401.027 254.174 401.059C253.99 401.087 253.811 401.112 253.635 401.135C253.463 401.155 253.323 401.172 253.215 401.186C252.955 401.22 252.712 401.275 252.486 401.351C252.262 401.425 252.081 401.536 251.943 401.686C251.807 401.833 251.739 402.034 251.739 402.289C251.739 402.636 251.868 402.899 252.125 403.078C252.385 403.253 252.715 403.341 253.113 403.341ZM261.672 399.031L260.773 399.286C260.717 399.136 260.633 398.99 260.523 398.849C260.415 398.704 260.268 398.586 260.082 398.492C259.895 398.399 259.656 398.352 259.365 398.352C258.966 398.352 258.634 398.444 258.368 398.628C258.105 398.809 257.974 399.039 257.974 399.319C257.974 399.568 258.064 399.765 258.245 399.909C258.426 400.053 258.709 400.173 259.093 400.27L260.061 400.507C260.643 400.649 261.077 400.865 261.363 401.156C261.648 401.445 261.791 401.816 261.791 402.272C261.791 402.645 261.684 402.979 261.469 403.273C261.257 403.567 260.96 403.799 260.578 403.968C260.196 404.138 259.752 404.223 259.246 404.223C258.582 404.223 258.032 404.079 257.596 403.79C257.161 403.502 256.885 403.08 256.769 402.526L257.719 402.289C257.81 402.639 257.981 402.902 258.232 403.078C258.487 403.253 258.819 403.341 259.229 403.341C259.696 403.341 260.066 403.242 260.341 403.044C260.618 402.843 260.756 402.603 260.756 402.323C260.756 402.096 260.677 401.907 260.519 401.754C260.36 401.599 260.117 401.483 259.789 401.406L258.703 401.152C258.107 401.01 257.668 400.791 257.388 400.494C257.111 400.195 256.973 399.82 256.973 399.37C256.973 399.003 257.076 398.678 257.282 398.395C257.491 398.112 257.776 397.89 258.135 397.729C258.497 397.568 258.907 397.487 259.365 397.487C260.01 397.487 260.516 397.628 260.883 397.911C261.254 398.194 261.517 398.567 261.672 399.031ZM265.313 404.223C264.685 404.223 264.144 404.084 263.688 403.807C263.236 403.527 262.887 403.137 262.641 402.636C262.398 402.133 262.276 401.548 262.276 400.88C262.276 400.213 262.398 399.625 262.641 399.116C262.887 398.604 263.229 398.205 263.667 397.92C264.108 397.631 264.623 397.487 265.211 397.487C265.551 397.487 265.886 397.544 266.217 397.657C266.547 397.77 266.849 397.954 267.12 398.208C267.392 398.46 267.608 398.793 267.769 399.209C267.93 399.625 268.011 400.137 268.011 400.745V401.169H262.989V400.304H266.993C266.993 399.936 266.919 399.608 266.772 399.319C266.628 399.031 266.422 398.803 266.153 398.637C265.887 398.47 265.573 398.386 265.211 398.386C264.813 398.386 264.468 398.485 264.176 398.683C263.888 398.878 263.666 399.133 263.51 399.447C263.355 399.761 263.277 400.097 263.277 400.456V401.033C263.277 401.525 263.362 401.942 263.532 402.284C263.704 402.624 263.943 402.883 264.248 403.061C264.554 403.236 264.909 403.324 265.313 403.324C265.576 403.324 265.814 403.287 266.026 403.213C266.241 403.137 266.426 403.024 266.581 402.874C266.737 402.721 266.857 402.532 266.942 402.306L267.909 402.577C267.807 402.905 267.636 403.194 267.396 403.442C267.155 403.688 266.858 403.881 266.505 404.019C266.152 404.155 265.754 404.223 265.313 404.223ZM276.346 397.572C276.295 397.142 276.089 396.808 275.727 396.571C275.365 396.333 274.921 396.214 274.395 396.214C274.01 396.214 273.674 396.277 273.385 396.401C273.1 396.526 272.876 396.697 272.715 396.914C272.557 397.132 272.478 397.38 272.478 397.657C272.478 397.889 272.533 398.088 272.643 398.255C272.756 398.419 272.9 398.556 273.076 398.666C273.251 398.774 273.435 398.863 273.627 398.933C273.82 399.001 273.996 399.056 274.157 399.099L275.04 399.336C275.266 399.396 275.518 399.478 275.795 399.582C276.075 399.687 276.342 399.83 276.596 400.011C276.854 400.189 277.066 400.418 277.233 400.698C277.4 400.978 277.483 401.322 277.483 401.729C277.483 402.198 277.36 402.622 277.114 403.001C276.871 403.38 276.514 403.681 276.045 403.905C275.578 404.128 275.011 404.24 274.344 404.24C273.722 404.24 273.183 404.139 272.728 403.939C272.276 403.738 271.919 403.458 271.659 403.099C271.402 402.74 271.256 402.323 271.222 401.848H272.308C272.336 402.176 272.447 402.447 272.639 402.662C272.834 402.874 273.08 403.032 273.377 403.137C273.677 403.239 273.999 403.29 274.344 403.29C274.746 403.29 275.106 403.225 275.426 403.095C275.745 402.962 275.998 402.778 276.185 402.543C276.372 402.306 276.465 402.028 276.465 401.712C276.465 401.423 276.384 401.189 276.223 401.008C276.062 400.827 275.85 400.68 275.587 400.567C275.324 400.453 275.04 400.354 274.734 400.27L273.665 399.964C272.987 399.769 272.449 399.491 272.054 399.129C271.658 398.767 271.46 398.293 271.46 397.708C271.46 397.221 271.591 396.797 271.854 396.435C272.12 396.07 272.476 395.787 272.923 395.587C273.373 395.383 273.875 395.281 274.429 395.281C274.989 395.281 275.487 395.382 275.922 395.582C276.357 395.78 276.702 396.052 276.957 396.397C277.214 396.742 277.35 397.134 277.364 397.572H276.346ZM282.466 401.423V397.572H283.467V404.087H282.466V402.984H282.398C282.246 403.315 282.008 403.597 281.686 403.828C281.363 404.057 280.956 404.172 280.464 404.172C280.057 404.172 279.695 404.083 279.378 403.905C279.061 403.724 278.813 403.452 278.632 403.09C278.451 402.726 278.36 402.266 278.36 401.712V397.572H279.361V401.644C279.361 402.119 279.494 402.498 279.76 402.781C280.029 403.063 280.371 403.205 280.786 403.205C281.035 403.205 281.288 403.141 281.546 403.014C281.806 402.887 282.024 402.692 282.199 402.429C282.377 402.166 282.466 401.831 282.466 401.423ZM284.584 404.087V397.572H285.551V398.556H285.619C285.738 398.234 285.953 397.972 286.264 397.771C286.575 397.57 286.925 397.47 287.316 397.47C287.389 397.47 287.481 397.471 287.591 397.474C287.702 397.477 287.785 397.481 287.842 397.487V398.505C287.808 398.497 287.73 398.484 287.608 398.467C287.49 398.447 287.364 398.437 287.231 398.437C286.914 398.437 286.631 398.504 286.382 398.637C286.136 398.767 285.941 398.948 285.797 399.179C285.656 399.409 285.585 399.67 285.585 399.964V404.087H284.584ZM288.312 406.53V397.572H289.279V398.607H289.397C289.471 398.494 289.573 398.349 289.703 398.174C289.836 397.996 290.025 397.838 290.271 397.699C290.52 397.558 290.857 397.487 291.281 397.487C291.829 397.487 292.313 397.624 292.731 397.898C293.15 398.173 293.477 398.562 293.711 399.065C293.946 399.568 294.063 400.162 294.063 400.846C294.063 401.536 293.946 402.135 293.711 402.641C293.477 403.144 293.151 403.534 292.736 403.811C292.32 404.086 291.841 404.223 291.298 404.223C290.879 404.223 290.544 404.154 290.292 404.015C290.041 403.874 289.847 403.714 289.711 403.536C289.576 403.355 289.471 403.205 289.397 403.086H289.313V406.53H288.312ZM289.296 400.829C289.296 401.322 289.368 401.756 289.512 402.132C289.656 402.505 289.867 402.798 290.144 403.01C290.421 403.219 290.76 403.324 291.162 403.324C291.581 403.324 291.93 403.213 292.21 402.993C292.493 402.769 292.705 402.47 292.846 402.094C292.99 401.715 293.062 401.293 293.062 400.829C293.062 400.371 292.992 399.959 292.85 399.591C292.712 399.22 292.501 398.928 292.218 398.713C291.938 398.495 291.586 398.386 291.162 398.386C290.755 398.386 290.413 398.489 290.136 398.696C289.858 398.9 289.649 399.185 289.508 399.553C289.366 399.918 289.296 400.343 289.296 400.829ZM295.875 395.4V404.087H294.874V395.4H295.875ZM301.098 401.423V397.572H302.099V404.087H301.098V402.984H301.03C300.877 403.315 300.639 403.597 300.317 403.828C299.995 404.057 299.588 404.172 299.095 404.172C298.688 404.172 298.326 404.083 298.01 403.905C297.693 403.724 297.444 403.452 297.263 403.09C297.082 402.726 296.992 402.266 296.992 401.712V397.572H297.993V401.644C297.993 402.119 298.126 402.498 298.391 402.781C298.66 403.063 299.002 403.205 299.418 403.205C299.667 403.205 299.92 403.141 300.177 403.014C300.437 402.887 300.655 402.692 300.83 402.429C301.009 402.166 301.098 401.831 301.098 401.423ZM307.83 399.031L306.931 399.286C306.875 399.136 306.791 398.99 306.681 398.849C306.574 398.704 306.426 398.586 306.24 398.492C306.053 398.399 305.814 398.352 305.523 398.352C305.124 398.352 304.792 398.444 304.526 398.628C304.263 398.809 304.132 399.039 304.132 399.319C304.132 399.568 304.222 399.765 304.403 399.909C304.584 400.053 304.867 400.173 305.251 400.27L306.219 400.507C306.801 400.649 307.235 400.865 307.521 401.156C307.806 401.445 307.949 401.816 307.949 402.272C307.949 402.645 307.842 402.979 307.627 403.273C307.415 403.567 307.118 403.799 306.736 403.968C306.354 404.138 305.91 404.223 305.404 404.223C304.74 404.223 304.19 404.079 303.754 403.79C303.319 403.502 303.043 403.08 302.927 402.526L303.877 402.289C303.968 402.639 304.139 402.902 304.39 403.078C304.645 403.253 304.977 403.341 305.387 403.341C305.854 403.341 306.224 403.242 306.499 403.044C306.776 402.843 306.914 402.603 306.914 402.323C306.914 402.096 306.835 401.907 306.677 401.754C306.518 401.599 306.275 401.483 305.947 401.406L304.861 401.152C304.265 401.01 303.826 400.791 303.546 400.494C303.269 400.195 303.131 399.82 303.131 399.37C303.131 399.003 303.234 398.678 303.44 398.395C303.65 398.112 303.934 397.89 304.293 397.729C304.655 397.568 305.065 397.487 305.523 397.487C306.168 397.487 306.674 397.628 307.042 397.911C307.412 398.194 307.675 398.567 307.83 399.031ZM311.518 404.087V395.4H314.555C315.16 395.4 315.659 395.505 316.052 395.714C316.445 395.92 316.738 396.199 316.93 396.55C317.123 396.897 317.219 397.283 317.219 397.708C317.219 398.081 317.152 398.389 317.019 398.632C316.889 398.875 316.717 399.068 316.502 399.209C316.29 399.351 316.059 399.455 315.811 399.523V399.608C316.076 399.625 316.344 399.718 316.612 399.888C316.881 400.058 317.106 400.301 317.287 400.617C317.468 400.934 317.558 401.322 317.558 401.78C317.558 402.215 317.459 402.607 317.261 402.955C317.063 403.302 316.751 403.578 316.324 403.782C315.897 403.985 315.341 404.087 314.657 404.087H311.518ZM312.57 403.154H314.657C315.344 403.154 315.832 403.021 316.12 402.755C316.412 402.487 316.557 402.161 316.557 401.78C316.557 401.486 316.482 401.214 316.332 400.965C316.182 400.714 315.969 400.513 315.692 400.363C315.415 400.21 315.087 400.134 314.708 400.134H312.57V403.154ZM312.57 399.218H314.521C314.838 399.218 315.123 399.155 315.378 399.031C315.635 398.907 315.839 398.731 315.989 398.505C316.141 398.279 316.218 398.013 316.218 397.708C316.218 397.326 316.085 397.002 315.819 396.736C315.553 396.468 315.132 396.333 314.555 396.333H312.57V399.218ZM322.54 401.423V397.572H323.541V404.087H322.54V402.984H322.472C322.32 403.315 322.082 403.597 321.76 403.828C321.437 404.057 321.03 404.172 320.538 404.172C320.131 404.172 319.769 404.083 319.452 403.905C319.136 403.724 318.887 403.452 318.706 403.09C318.525 402.726 318.434 402.266 318.434 401.712V397.572H319.435V401.644C319.435 402.119 319.568 402.498 319.834 402.781C320.103 403.063 320.445 403.205 320.861 403.205C321.109 403.205 321.362 403.141 321.62 403.014C321.88 402.887 322.098 402.692 322.273 402.429C322.451 402.166 322.54 401.831 322.54 401.423ZM325.659 395.4V404.087H324.658V395.4H325.659ZM328.693 404.24C328.28 404.24 327.906 404.162 327.569 404.007C327.233 403.848 326.965 403.621 326.768 403.324C326.57 403.024 326.471 402.662 326.471 402.238C326.471 401.864 326.544 401.562 326.691 401.33C326.838 401.095 327.035 400.912 327.281 400.779C327.527 400.646 327.798 400.547 328.095 400.482C328.395 400.414 328.696 400.36 328.999 400.32C329.395 400.27 329.716 400.231 329.962 400.206C330.21 400.178 330.391 400.131 330.504 400.066C330.62 400.001 330.678 399.888 330.678 399.727V399.693C330.678 399.274 330.564 398.949 330.335 398.717C330.109 398.485 329.765 398.369 329.304 398.369C328.826 398.369 328.451 398.474 328.18 398.683C327.909 398.892 327.718 399.116 327.607 399.353L326.657 399.014C326.827 398.618 327.053 398.31 327.336 398.089C327.622 397.866 327.933 397.71 328.269 397.623C328.608 397.532 328.942 397.487 329.27 397.487C329.479 397.487 329.72 397.512 329.991 397.563C330.266 397.611 330.53 397.712 330.784 397.865C331.042 398.017 331.255 398.248 331.425 398.556C331.595 398.864 331.679 399.277 331.679 399.795V404.087H330.678V403.205H330.628C330.56 403.346 330.447 403.498 330.288 403.659C330.13 403.82 329.919 403.957 329.656 404.07C329.393 404.183 329.072 404.24 328.693 404.24ZM328.846 403.341C329.242 403.341 329.576 403.263 329.847 403.107C330.121 402.952 330.328 402.751 330.466 402.505C330.608 402.259 330.678 402 330.678 401.729V400.813C330.636 400.863 330.543 400.91 330.398 400.953C330.257 400.992 330.093 401.027 329.906 401.059C329.723 401.087 329.543 401.112 329.368 401.135C329.195 401.155 329.055 401.172 328.948 401.186C328.688 401.22 328.444 401.275 328.218 401.351C327.995 401.425 327.814 401.536 327.675 401.686C327.54 401.833 327.472 402.034 327.472 402.289C327.472 402.636 327.6 402.899 327.858 403.078C328.118 403.253 328.447 403.341 328.846 403.341ZM333.791 400.168V404.087H332.79V397.572H333.757V398.59H333.842C333.995 398.259 334.226 397.993 334.538 397.792C334.849 397.589 335.25 397.487 335.742 397.487C336.183 397.487 336.569 397.577 336.9 397.758C337.231 397.937 337.488 398.208 337.672 398.573C337.856 398.935 337.948 399.393 337.948 399.947V404.087H336.947V400.015C336.947 399.503 336.814 399.105 336.548 398.819C336.282 398.53 335.917 398.386 335.454 398.386C335.134 398.386 334.849 398.456 334.597 398.594C334.348 398.733 334.152 398.935 334.007 399.201C333.863 399.466 333.791 399.789 333.791 400.168ZM342.891 395.4V404.087H341.839V395.4H342.891ZM345.149 400.168V404.087H344.148V397.572H345.115V398.59H345.2C345.352 398.259 345.584 397.993 345.895 397.792C346.206 397.589 346.608 397.487 347.1 397.487C347.541 397.487 347.927 397.577 348.258 397.758C348.589 397.937 348.846 398.208 349.03 398.573C349.214 398.935 349.306 399.393 349.306 399.947V404.087H348.305V400.015C348.305 399.503 348.172 399.105 347.906 398.819C347.64 398.53 347.275 398.386 346.811 398.386C346.492 398.386 346.206 398.456 345.955 398.594C345.706 398.733 345.509 398.935 345.365 399.201C345.221 399.466 345.149 399.789 345.149 400.168ZM350.418 404.087V397.572H351.419V404.087H350.418ZM350.927 396.486C350.732 396.486 350.564 396.42 350.422 396.287C350.284 396.154 350.215 395.994 350.215 395.807C350.215 395.621 350.284 395.461 350.422 395.328C350.564 395.195 350.732 395.129 350.927 395.129C351.122 395.129 351.289 395.195 351.428 395.328C351.569 395.461 351.64 395.621 351.64 395.807C351.64 395.994 351.569 396.154 351.428 396.287C351.289 396.42 351.122 396.486 350.927 396.486Z" fill="#212426"/>
<rect x="265.07" y="61" width="250.84" height="293.218" rx="17.9171" fill="#18171F"/>
<path d="M326.62 98.1667V96.6805H336.997V98.1667H332.646V110.516H330.971V98.1667H326.62ZM341.697 110.732C340.76 110.732 339.938 110.509 339.231 110.063C338.528 109.618 337.979 108.994 337.582 108.192C337.191 107.39 336.995 106.454 336.995 105.382C336.995 104.301 337.191 103.357 337.582 102.551C337.979 101.745 338.528 101.119 339.231 100.673C339.938 100.227 340.76 100.004 341.697 100.004C342.633 100.004 343.453 100.227 344.156 100.673C344.863 101.119 345.412 101.745 345.804 102.551C346.2 103.357 346.399 104.301 346.399 105.382C346.399 106.454 346.2 107.39 345.804 108.192C345.412 108.994 344.863 109.618 344.156 110.063C343.453 110.509 342.633 110.732 341.697 110.732ZM341.697 109.3C342.408 109.3 342.994 109.118 343.453 108.753C343.912 108.388 344.253 107.908 344.473 107.314C344.694 106.719 344.804 106.075 344.804 105.382C344.804 104.688 344.694 104.042 344.473 103.443C344.253 102.844 343.912 102.36 343.453 101.99C342.994 101.621 342.408 101.436 341.697 101.436C340.985 101.436 340.4 101.621 339.94 101.99C339.481 102.36 339.141 102.844 338.92 103.443C338.699 104.042 338.589 104.688 338.589 105.382C338.589 106.075 338.699 106.719 338.92 107.314C339.141 107.908 339.481 108.388 339.94 108.753C340.4 109.118 340.985 109.3 341.697 109.3ZM352.965 100.139V101.491H347.587V100.139H352.965ZM349.154 97.6533H350.749V107.544C350.749 107.994 350.814 108.332 350.945 108.557C351.08 108.778 351.251 108.926 351.458 109.003C351.67 109.075 351.893 109.111 352.127 109.111C352.303 109.111 352.447 109.102 352.559 109.084C352.672 109.061 352.762 109.043 352.829 109.03L353.154 110.462C353.046 110.503 352.895 110.543 352.701 110.584C352.507 110.629 352.262 110.651 351.965 110.651C351.514 110.651 351.073 110.554 350.641 110.361C350.213 110.167 349.857 109.872 349.573 109.476C349.294 109.079 349.154 108.579 349.154 107.976V97.6533ZM358.036 110.759C357.378 110.759 356.782 110.635 356.246 110.388C355.71 110.136 355.284 109.773 354.969 109.3C354.654 108.823 354.496 108.246 354.496 107.571C354.496 106.976 354.613 106.494 354.847 106.125C355.081 105.751 355.394 105.458 355.786 105.247C356.178 105.035 356.611 104.877 357.083 104.774C357.561 104.666 358.04 104.58 358.522 104.517C359.153 104.436 359.664 104.375 360.056 104.335C360.452 104.29 360.74 104.215 360.921 104.112C361.105 104.008 361.198 103.828 361.198 103.571V103.517C361.198 102.851 361.015 102.333 360.65 101.963C360.29 101.594 359.743 101.409 359.009 101.409C358.248 101.409 357.651 101.576 357.219 101.909C356.786 102.243 356.482 102.598 356.306 102.977L354.793 102.436C355.063 101.806 355.424 101.315 355.874 100.964C356.329 100.608 356.824 100.36 357.36 100.22C357.901 100.076 358.432 100.004 358.955 100.004C359.288 100.004 359.671 100.045 360.103 100.126C360.54 100.202 360.961 100.362 361.366 100.606C361.776 100.849 362.116 101.216 362.387 101.707C362.657 102.198 362.792 102.855 362.792 103.679V110.516H361.198V109.111H361.117C361.008 109.336 360.828 109.577 360.576 109.834C360.324 110.091 359.988 110.309 359.569 110.489C359.151 110.669 358.639 110.759 358.036 110.759ZM358.279 109.327C358.91 109.327 359.441 109.203 359.873 108.956C360.31 108.708 360.639 108.388 360.86 107.996C361.085 107.604 361.198 107.192 361.198 106.76V105.301C361.13 105.382 360.981 105.456 360.752 105.524C360.527 105.587 360.265 105.643 359.968 105.693C359.675 105.738 359.389 105.778 359.11 105.814C358.835 105.846 358.612 105.873 358.441 105.895C358.027 105.949 357.64 106.037 357.279 106.159C356.924 106.276 356.635 106.454 356.415 106.692C356.198 106.927 356.09 107.246 356.09 107.652C356.09 108.206 356.295 108.625 356.705 108.908C357.119 109.187 357.644 109.327 358.279 109.327ZM366.916 96.6805V110.516H365.321V96.6805H366.916ZM382.208 100.139C382.127 99.4548 381.798 98.9234 381.222 98.5451C380.645 98.1667 379.938 97.9776 379.1 97.9776C378.488 97.9776 377.952 98.0767 377.493 98.2748C377.038 98.473 376.682 98.7455 376.425 99.0923C376.173 99.4391 376.047 99.8331 376.047 100.275C376.047 100.644 376.135 100.961 376.31 101.227C376.49 101.488 376.72 101.707 376.999 101.882C377.279 102.054 377.571 102.195 377.878 102.308C378.184 102.416 378.465 102.504 378.722 102.571L380.127 102.95C380.488 103.044 380.888 103.175 381.33 103.342C381.776 103.508 382.201 103.736 382.607 104.024C383.016 104.308 383.354 104.672 383.62 105.118C383.886 105.564 384.019 106.111 384.019 106.76C384.019 107.508 383.823 108.183 383.431 108.787C383.043 109.39 382.476 109.87 381.728 110.226C380.985 110.581 380.082 110.759 379.019 110.759C378.028 110.759 377.171 110.599 376.445 110.28C375.725 109.96 375.157 109.514 374.743 108.942C374.333 108.37 374.101 107.706 374.047 106.949H375.777C375.822 107.472 375.997 107.904 376.304 108.246C376.614 108.584 377.006 108.836 377.479 109.003C377.956 109.165 378.47 109.246 379.019 109.246C379.659 109.246 380.233 109.142 380.742 108.935C381.251 108.724 381.654 108.431 381.951 108.057C382.249 107.679 382.397 107.237 382.397 106.733C382.397 106.274 382.269 105.9 382.012 105.611C381.755 105.323 381.418 105.089 380.999 104.909C380.58 104.729 380.127 104.571 379.641 104.436L377.938 103.95C376.858 103.639 376.002 103.195 375.371 102.619C374.741 102.042 374.425 101.288 374.425 100.356C374.425 99.5809 374.635 98.9054 375.054 98.3289C375.477 97.7479 376.045 97.2975 376.756 96.9777C377.472 96.6535 378.272 96.4913 379.154 96.4913C380.046 96.4913 380.839 96.6512 381.532 96.971C382.226 97.2863 382.775 97.7186 383.181 98.2681C383.591 98.8175 383.807 99.4413 383.829 100.139H382.208ZM386.176 114.407V100.139H387.717V101.788H387.906C388.023 101.608 388.185 101.378 388.392 101.099C388.604 100.815 388.906 100.563 389.298 100.342C389.694 100.117 390.23 100.004 390.905 100.004C391.779 100.004 392.549 100.223 393.216 100.66C393.882 101.096 394.403 101.716 394.776 102.517C395.15 103.319 395.337 104.265 395.337 105.355C395.337 106.454 395.15 107.406 394.776 108.212C394.403 109.014 393.885 109.636 393.223 110.077C392.561 110.514 391.797 110.732 390.932 110.732C390.266 110.732 389.732 110.622 389.331 110.401C388.931 110.176 388.622 109.922 388.406 109.638C388.19 109.35 388.023 109.111 387.906 108.922H387.771V114.407H386.176ZM387.744 105.328C387.744 106.111 387.859 106.803 388.088 107.402C388.318 107.996 388.654 108.462 389.095 108.8C389.536 109.133 390.077 109.3 390.716 109.3C391.383 109.3 391.939 109.124 392.385 108.773C392.835 108.417 393.173 107.94 393.398 107.341C393.628 106.737 393.743 106.066 393.743 105.328C393.743 104.598 393.63 103.941 393.405 103.355C393.184 102.765 392.849 102.299 392.398 101.957C391.953 101.61 391.392 101.436 390.716 101.436C390.068 101.436 389.523 101.601 389.081 101.93C388.64 102.254 388.307 102.709 388.082 103.294C387.856 103.875 387.744 104.553 387.744 105.328ZM401.739 110.732C400.74 110.732 399.877 110.512 399.152 110.07C398.431 109.624 397.875 109.003 397.483 108.206C397.096 107.404 396.902 106.472 396.902 105.409C396.902 104.346 397.096 103.409 397.483 102.598C397.875 101.783 398.42 101.148 399.118 100.693C399.821 100.234 400.64 100.004 401.577 100.004C402.118 100.004 402.651 100.094 403.178 100.275C403.705 100.455 404.185 100.747 404.617 101.153C405.05 101.554 405.394 102.085 405.651 102.747C405.908 103.409 406.036 104.224 406.036 105.193V105.868H398.037V104.49H404.415C404.415 103.905 404.298 103.382 404.063 102.923C403.834 102.463 403.505 102.101 403.077 101.835C402.654 101.569 402.154 101.436 401.577 101.436C400.942 101.436 400.393 101.594 399.929 101.909C399.469 102.22 399.116 102.625 398.868 103.125C398.621 103.625 398.497 104.161 398.497 104.733V105.652C398.497 106.436 398.632 107.1 398.902 107.645C399.177 108.185 399.557 108.598 400.044 108.881C400.53 109.16 401.095 109.3 401.739 109.3C402.158 109.3 402.537 109.242 402.874 109.124C403.217 109.003 403.512 108.823 403.759 108.584C404.007 108.341 404.198 108.039 404.334 107.679L405.874 108.111C405.712 108.634 405.439 109.093 405.056 109.489C404.674 109.881 404.201 110.187 403.638 110.408C403.075 110.624 402.442 110.732 401.739 110.732ZM409.675 104.274V110.516H408.081V100.139H409.621V101.761H409.756C409.999 101.234 410.369 100.81 410.864 100.491C411.36 100.166 411.999 100.004 412.783 100.004C413.485 100.004 414.1 100.148 414.627 100.437C415.154 100.72 415.564 101.153 415.857 101.734C416.149 102.31 416.296 103.04 416.296 103.923V110.516H414.701V104.031C414.701 103.215 414.49 102.58 414.066 102.126C413.643 101.666 413.062 101.436 412.323 101.436C411.814 101.436 411.36 101.547 410.959 101.768C410.562 101.988 410.249 102.31 410.02 102.734C409.79 103.157 409.675 103.67 409.675 104.274ZM422.747 110.732C421.882 110.732 421.119 110.514 420.457 110.077C419.795 109.636 419.277 109.014 418.903 108.212C418.529 107.406 418.342 106.454 418.342 105.355C418.342 104.265 418.529 103.319 418.903 102.517C419.277 101.716 419.797 101.096 420.463 100.66C421.13 100.223 421.9 100.004 422.774 100.004C423.449 100.004 423.983 100.117 424.375 100.342C424.771 100.563 425.073 100.815 425.28 101.099C425.492 101.378 425.656 101.608 425.773 101.788H425.909V96.6805H427.503V110.516H425.963V108.922H425.773C425.656 109.111 425.49 109.35 425.274 109.638C425.057 109.922 424.749 110.176 424.348 110.401C423.947 110.622 423.413 110.732 422.747 110.732ZM422.963 109.3C423.603 109.3 424.143 109.133 424.584 108.8C425.026 108.462 425.361 107.996 425.591 107.402C425.821 106.803 425.936 106.111 425.936 105.328C425.936 104.553 425.823 103.875 425.598 103.294C425.373 102.709 425.039 102.254 424.598 101.93C424.157 101.601 423.612 101.436 422.963 101.436C422.288 101.436 421.725 101.61 421.274 101.957C420.828 102.299 420.493 102.765 420.268 103.355C420.047 103.941 419.937 104.598 419.937 105.328C419.937 106.066 420.049 106.737 420.274 107.341C420.504 107.94 420.842 108.417 421.288 108.773C421.738 109.124 422.297 109.3 422.963 109.3ZM430.264 110.516V100.139H431.858V110.516H430.264ZM431.074 98.41C430.764 98.41 430.496 98.3041 430.271 98.0924C430.05 97.8808 429.94 97.6263 429.94 97.329C429.94 97.0318 430.05 96.7773 430.271 96.5657C430.496 96.354 430.764 96.2481 431.074 96.2481C431.385 96.2481 431.651 96.354 431.872 96.5657C432.097 96.7773 432.209 97.0318 432.209 97.329C432.209 97.6263 432.097 97.8808 431.872 98.0924C431.651 98.3041 431.385 98.41 431.074 98.41ZM435.992 104.274V110.516H434.398V100.139H435.938V101.761H436.073C436.316 101.234 436.686 100.81 437.181 100.491C437.677 100.166 438.316 100.004 439.1 100.004C439.802 100.004 440.417 100.148 440.944 100.437C441.471 100.72 441.881 101.153 442.174 101.734C442.466 102.31 442.613 103.04 442.613 103.923V110.516H441.018V104.031C441.018 103.215 440.807 102.58 440.383 102.126C439.96 101.666 439.379 101.436 438.64 101.436C438.131 101.436 437.677 101.547 437.276 101.768C436.879 101.988 436.566 102.31 436.337 102.734C436.107 103.157 435.992 103.67 435.992 104.274ZM449.334 114.624C448.564 114.624 447.902 114.524 447.348 114.326C446.794 114.133 446.332 113.876 445.963 113.556C445.598 113.241 445.308 112.903 445.092 112.543L446.362 111.651C446.506 111.84 446.688 112.056 446.909 112.3C447.13 112.547 447.431 112.761 447.814 112.941C448.201 113.126 448.708 113.218 449.334 113.218C450.172 113.218 450.863 113.016 451.408 112.61C451.953 112.205 452.226 111.57 452.226 110.705V108.598H452.09C451.973 108.787 451.807 109.021 451.591 109.3C451.379 109.575 451.073 109.82 450.672 110.036C450.275 110.248 449.739 110.354 449.064 110.354C448.226 110.354 447.474 110.156 446.807 109.759C446.145 109.363 445.621 108.787 445.233 108.03C444.851 107.273 444.659 106.355 444.659 105.274C444.659 104.211 444.846 103.285 445.22 102.497C445.594 101.704 446.114 101.092 446.78 100.66C447.447 100.223 448.217 100.004 449.091 100.004C449.766 100.004 450.302 100.117 450.699 100.342C451.1 100.563 451.406 100.815 451.618 101.099C451.834 101.378 452 101.608 452.117 101.788H452.28V100.139H453.82V110.813C453.82 111.705 453.617 112.43 453.212 112.989C452.811 113.552 452.271 113.964 451.591 114.225C450.915 114.491 450.163 114.624 449.334 114.624ZM449.28 108.922C449.92 108.922 450.46 108.775 450.901 108.483C451.343 108.19 451.678 107.769 451.908 107.219C452.138 106.67 452.253 106.012 452.253 105.247C452.253 104.499 452.14 103.839 451.915 103.267C451.69 102.695 451.356 102.247 450.915 101.923C450.474 101.599 449.929 101.436 449.28 101.436C448.604 101.436 448.042 101.608 447.591 101.95C447.145 102.292 446.81 102.752 446.585 103.328C446.364 103.905 446.254 104.544 446.254 105.247C446.254 105.967 446.366 106.605 446.591 107.159C446.821 107.708 447.159 108.14 447.605 108.456C448.055 108.766 448.614 108.922 449.28 108.922Z" fill="white"/>
<circle cx="390.49" cy="221.019" r="74.7935" stroke="#2A2A2C" stroke-width="24.5531"/>
<g filter="url(#filter1_i_2177_1152)">
<mask id="path-9-inside-1_2177_1152" fill="white">
<path d="M403.341 148.137C404.594 141.032 411.419 136.194 418.258 138.495C428.739 142.022 438.491 147.526 446.968 154.751C458.773 164.812 467.676 177.843 472.757 192.498C477.837 207.153 478.911 222.899 475.867 238.108C472.823 253.317 465.771 267.436 455.441 279.006C445.111 290.577 431.878 299.178 417.111 303.92C402.343 308.662 386.576 309.373 371.441 305.98C356.307 302.586 342.353 295.212 331.024 284.618C322.888 277.011 316.318 267.943 311.63 257.927C308.571 251.393 312.608 244.065 319.526 242.018C326.445 239.97 333.597 244.022 337.07 250.347C340.161 255.978 344.136 261.109 348.869 265.533C356.798 272.948 366.565 278.109 377.158 280.484C387.751 282.859 398.786 282.362 409.122 279.042C419.459 275.723 428.721 269.704 435.951 261.605C443.18 253.507 448.116 243.625 450.247 232.98C452.377 222.335 451.626 211.314 448.07 201.057C444.514 190.8 438.282 181.679 430.02 174.637C425.089 170.435 419.542 167.064 413.598 164.628C406.922 161.892 402.088 155.243 403.341 148.137Z"/>
</mask>
<path d="M403.341 148.137C404.594 141.032 411.419 136.194 418.258 138.495C428.739 142.022 438.491 147.526 446.968 154.751C458.773 164.812 467.676 177.843 472.757 192.498C477.837 207.153 478.911 222.899 475.867 238.108C472.823 253.317 465.771 267.436 455.441 279.006C445.111 290.577 431.878 299.178 417.111 303.92C402.343 308.662 386.576 309.373 371.441 305.98C356.307 302.586 342.353 295.212 331.024 284.618C322.888 277.011 316.318 267.943 311.63 257.927C308.571 251.393 312.608 244.065 319.526 242.018C326.445 239.97 333.597 244.022 337.07 250.347C340.161 255.978 344.136 261.109 348.869 265.533C356.798 272.948 366.565 278.109 377.158 280.484C387.751 282.859 398.786 282.362 409.122 279.042C419.459 275.723 428.721 269.704 435.951 261.605C443.18 253.507 448.116 243.625 450.247 232.98C452.377 222.335 451.626 211.314 448.07 201.057C444.514 190.8 438.282 181.679 430.02 174.637C425.089 170.435 419.542 167.064 413.598 164.628C406.922 161.892 402.088 155.243 403.341 148.137Z" stroke="url(#paint1_linear_2177_1152)" stroke-width="49.1062" mask="url(#path-9-inside-1_2177_1152)"/>
</g>
<path d="M363.37 235.174C362.099 235.155 360.846 234.923 359.612 234.478C358.387 234.032 357.273 233.29 356.271 232.25C355.268 231.211 354.466 229.814 353.862 228.06C353.268 226.306 352.971 224.116 352.971 221.489C352.971 219.002 353.217 216.794 353.709 214.863C354.21 212.933 354.93 211.304 355.867 209.977C356.804 208.641 357.937 207.624 359.264 206.928C360.591 206.232 362.08 205.884 363.732 205.884C365.431 205.884 366.939 206.218 368.256 206.887C369.574 207.555 370.642 208.478 371.458 209.657C372.284 210.835 372.809 212.176 373.031 213.68H368.785C368.498 212.492 367.927 211.522 367.073 210.77C366.219 210.019 365.106 209.643 363.732 209.643C361.644 209.643 360.015 210.552 358.846 212.371C357.686 214.19 357.101 216.719 357.092 219.958H357.301C357.793 219.151 358.396 218.464 359.11 217.898C359.834 217.323 360.642 216.882 361.533 216.575C362.433 216.26 363.38 216.102 364.373 216.102C366.024 216.102 367.519 216.506 368.855 217.313C370.201 218.111 371.273 219.216 372.071 220.626C372.869 222.037 373.268 223.652 373.268 225.471C373.268 227.29 372.855 228.937 372.029 230.413C371.212 231.888 370.062 233.058 368.577 233.921C367.092 234.775 365.356 235.192 363.37 235.174ZM363.356 231.554C364.451 231.554 365.431 231.285 366.294 230.747C367.157 230.209 367.839 229.485 368.34 228.575C368.841 227.666 369.092 226.649 369.092 225.526C369.092 224.431 368.846 223.434 368.354 222.534C367.871 221.633 367.203 220.919 366.349 220.39C365.505 219.861 364.54 219.596 363.454 219.596C362.628 219.596 361.862 219.754 361.157 220.07C360.461 220.385 359.848 220.821 359.319 221.378C358.79 221.935 358.373 222.575 358.066 223.299C357.769 224.014 357.621 224.77 357.621 225.568C357.621 226.636 357.867 227.624 358.359 228.533C358.86 229.443 359.542 230.176 360.405 230.733C361.277 231.28 362.261 231.554 363.356 231.554ZM377.555 234.784V231.666L387.202 221.67C388.232 220.585 389.081 219.633 389.749 218.817C390.427 217.991 390.932 217.207 391.267 216.464C391.601 215.722 391.768 214.933 391.768 214.098C391.768 213.151 391.545 212.334 391.099 211.647C390.654 210.951 390.046 210.418 389.276 210.047C388.506 209.666 387.638 209.476 386.673 209.476C385.652 209.476 384.761 209.685 384 210.102C383.239 210.52 382.654 211.109 382.246 211.87C381.838 212.631 381.633 213.522 381.633 214.543H377.527C377.527 212.808 377.926 211.29 378.724 209.991C379.522 208.692 380.617 207.685 382.009 206.97C383.401 206.246 384.984 205.884 386.756 205.884C388.547 205.884 390.125 206.242 391.489 206.956C392.863 207.662 393.935 208.627 394.705 209.852C395.475 211.067 395.86 212.441 395.86 213.972C395.86 215.03 395.661 216.065 395.262 217.077C394.872 218.088 394.19 219.216 393.215 220.459C392.241 221.694 390.886 223.192 389.151 224.956L383.485 230.886V231.095H396.32V234.784H377.555ZM415.693 229.438V227.935C415.693 226.858 415.916 225.875 416.361 224.984C416.816 224.083 417.475 223.364 418.338 222.826C419.21 222.278 420.264 222.005 421.498 222.005C422.76 222.005 423.818 222.274 424.672 222.812C425.526 223.35 426.171 224.069 426.607 224.97C427.052 225.87 427.275 226.858 427.275 227.935V229.438C427.275 230.515 427.052 231.503 426.607 232.403C426.161 233.294 425.507 234.014 424.644 234.561C423.79 235.099 422.742 235.368 421.498 235.368C420.245 235.368 419.187 235.099 418.324 234.561C417.461 234.014 416.807 233.294 416.361 232.403C415.916 231.503 415.693 230.515 415.693 229.438ZM418.937 227.935V229.438C418.937 230.236 419.127 230.96 419.507 231.61C419.888 232.26 420.551 232.584 421.498 232.584C422.435 232.584 423.09 232.26 423.461 231.61C423.832 230.96 424.018 230.236 424.018 229.438V227.935C424.018 227.137 423.837 226.413 423.475 225.763C423.122 225.114 422.463 224.789 421.498 224.789C420.57 224.789 419.911 225.114 419.521 225.763C419.131 226.413 418.937 227.137 418.937 227.935ZM401.355 213.123V211.62C401.355 210.543 401.577 209.555 402.023 208.655C402.478 207.754 403.136 207.035 404 206.497C404.872 205.959 405.925 205.689 407.16 205.689C408.422 205.689 409.48 205.959 410.334 206.497C411.187 207.035 411.832 207.754 412.269 208.655C412.705 209.555 412.923 210.543 412.923 211.62V213.123C412.923 214.2 412.7 215.188 412.255 216.088C411.818 216.979 411.169 217.698 410.306 218.246C409.452 218.784 408.403 219.053 407.16 219.053C405.897 219.053 404.835 218.784 403.972 218.246C403.118 217.698 402.468 216.979 402.023 216.088C401.577 215.188 401.355 214.2 401.355 213.123ZM404.612 211.62V213.123C404.612 213.921 404.798 214.645 405.169 215.295C405.549 215.944 406.213 216.269 407.16 216.269C408.088 216.269 408.737 215.944 409.108 215.295C409.489 214.645 409.679 213.921 409.679 213.123V211.62C409.679 210.822 409.498 210.098 409.136 209.448C408.774 208.798 408.115 208.474 407.16 208.474C406.232 208.474 405.573 208.798 405.183 209.448C404.802 210.098 404.612 210.822 404.612 211.62ZM402.677 234.784L422.278 206.274H425.605L406.004 234.784H402.677Z" fill="white"/>
<path d="M472.477 391.358C481.69 389.939 484.274 386.99 489.73 377.105C490.569 389.963 492.699 394.479 500.795 397.896C491.424 397.253 485.811 405.075 480.117 421.491C480.61 402.861 480.515 397.773 472.477 391.358Z" fill="#AAA4E6"/>
<defs>
<filter id="filter0_f_2177_1152" x="-3.37624" y="0.117905" width="543.591" height="524.32" filterUnits="userSpaceOnUse" color-interpolation-filters="sRGB">
<feFlood flood-opacity="0" result="BackgroundImageFix"/>
<feBlend mode="normal" in="SourceGraphic" in2="BackgroundImageFix" result="shape"/>
<feGaussianBlur stdDeviation="70.733" result="effect1_foregroundBlur_2177_1152"/>
</filter>
<filter id="filter1_i_2177_1152" x="310.594" y="137.917" width="166.966" height="170.172" filterUnits="userSpaceOnUse" color-interpolation-filters="sRGB">
<feFlood flood-opacity="0" result="BackgroundImageFix"/>
<feBlend mode="normal" in="SourceGraphic" in2="BackgroundImageFix" result="shape"/>
<feColorMatrix in="SourceAlpha" type="matrix" values="0 0 0 0 0 0 0 0 0 0 0 0 0 0 0 0 0 0 127 0" result="hardAlpha"/>
<feOffset/>
<feGaussianBlur stdDeviation="3.37772"/>
<feComposite in2="hardAlpha" operator="arithmetic" k2="-1" k3="1"/>
<feColorMatrix type="matrix" values="0 0 0 0 1 0 0 0 0 1 0 0 0 0 1 0 0 0 1 0"/>
<feBlend mode="normal" in2="shape" result="effect1_innerShadow_2177_1152"/>
</filter>
<linearGradient id="paint0_linear_2177_1152" x1="144.726" y1="326.894" x2="421.446" y2="444.018" gradientUnits="userSpaceOnUse">
<stop stop-color="#D0CCF2"/>
<stop offset="0.341346" stop-color="#AAA4E6"/>
</linearGradient>
<linearGradient id="paint1_linear_2177_1152" x1="405.61" y1="135.272" x2="375.371" y2="306.766" gradientUnits="userSpaceOnUse">
<stop stop-color="#ECF9B9"/>
<stop offset="1" stop-color="#A2CAAA"/>
</linearGradient>
</defs>
</svg>
