<svg width="91" height="29" viewBox="0 0 91 29" fill="none" xmlns="http://www.w3.org/2000/svg">
<rect width="29" height="29" rx="9.29487" fill="#107BFF"/>
<path d="M12.7109 16.9939C12.0153 16.9939 9.58904 16.0662 8.62965 15.4665C7.70383 14.8969 6.34263 18.1572 7.23853 18.7285C8.36581 19.544 10.1499 20.6396 13.4065 20.6396C16.5965 20.6396 18.7071 18.9127 18.7071 16.3463C18.7071 11.7413 13.2146 12.2449 13.2146 10.9738C13.2146 10.566 13.6463 10.3262 14.2939 10.3981C15.0134 10.3981 16.0448 10.7819 16.9082 11.3335C17.0521 11.4295 17.1721 11.3815 17.22 11.2376L18.4432 8.4074C18.4912 8.31148 18.4432 8.16752 18.2994 8.0716C17.0761 7.2801 15.2533 6.75244 13.7423 6.75244C10.4803 6.75244 8.2977 8.47931 8.2977 11.0457C8.2977 15.5549 13.7902 15.1711 13.7902 16.3943C13.7902 16.826 13.3585 17.0659 12.7109 16.9939Z" fill="white"/>
<path d="M21.5566 9.63811L19.2834 8.57812C19.0926 8.48913 18.8657 8.5717 18.7767 8.76254L17.6161 11.2515C17.5271 11.4424 17.6097 11.6692 17.8005 11.7582L20.0737 12.8182C20.2645 12.9072 20.4914 12.8246 20.5804 12.6338L21.741 10.1448C21.83 9.95395 21.7474 9.7271 21.5566 9.63811Z" fill="white"/>
<path d="M23.1755 11.9481L21.7483 11.2826C21.6285 11.2267 21.4861 11.2785 21.4302 11.3983L20.7015 12.9611C20.6456 13.0809 20.6975 13.2233 20.8173 13.2792L22.2445 13.9447C22.3643 14.0006 22.5067 13.9487 22.5626 13.8289L23.2913 12.2662C23.3472 12.1464 23.2954 12.004 23.1755 11.9481Z" fill="white"/>
<path d="M21.5552 6.89608L20.128 6.23056C20.0081 6.17469 19.8657 6.22653 19.8098 6.34635L19.0811 7.90905C19.0253 8.02887 19.0771 8.1713 19.1969 8.22717L20.6241 8.89269C20.744 8.94857 20.8864 8.89673 20.9423 8.77691L21.671 7.2142C21.7268 7.09438 21.675 6.95195 21.5552 6.89608Z" fill="white"/>
<path d="M39.2366 11.4612C39.1807 10.9389 38.9455 10.5322 38.5309 10.2412C38.1202 9.95012 37.586 9.8046 36.9281 9.8046C36.4656 9.8046 36.0689 9.87437 35.738 10.0139C35.4071 10.1535 35.1539 10.3428 34.9785 10.582C34.8031 10.8213 34.7134 11.0944 34.7094 11.4014C34.7094 11.6565 34.7672 11.8778 34.8828 12.0652C35.0024 12.2526 35.1639 12.412 35.3672 12.5436C35.5706 12.6712 35.7958 12.7788 36.043 12.8666C36.2902 12.9543 36.5394 13.028 36.7906 13.0878L37.9388 13.3749C38.4013 13.4825 38.8458 13.6281 39.2724 13.8115C39.703 13.9949 40.0878 14.2261 40.4267 14.5052C40.7695 14.7843 41.0406 15.1212 41.24 15.5159C41.4393 15.9106 41.539 16.3731 41.539 16.9033C41.539 17.621 41.3556 18.2529 40.9888 18.7991C40.622 19.3413 40.0918 19.7659 39.398 20.0729C38.7083 20.3759 37.873 20.5274 36.8922 20.5274C35.9394 20.5274 35.1121 20.3799 34.4104 20.0849C33.7127 19.7899 33.1665 19.3593 32.7718 18.7931C32.381 18.227 32.1697 17.5372 32.1378 16.7239H34.3207C34.3526 17.1505 34.4841 17.5053 34.7154 17.7884C34.9466 18.0715 35.2476 18.2828 35.6184 18.4223C35.9932 18.5619 36.4118 18.6317 36.8743 18.6317C37.3567 18.6317 37.7793 18.5599 38.1421 18.4164C38.5089 18.2688 38.796 18.0655 39.0033 17.8064C39.2106 17.5432 39.3163 17.2362 39.3203 16.8854C39.3163 16.5664 39.2226 16.3033 39.0392 16.096C38.8558 15.8847 38.5987 15.7092 38.2677 15.5697C37.9408 15.4262 37.5581 15.2986 37.1195 15.1869L35.7261 14.8281C34.7174 14.569 33.92 14.1763 33.3339 13.65C32.7518 13.1197 32.4608 12.416 32.4608 11.5389C32.4608 10.8173 32.6561 10.1853 33.0469 9.64313C33.4416 9.1009 33.9778 8.68028 34.6556 8.38126C35.3334 8.07826 36.1008 7.92676 36.958 7.92676C37.8272 7.92676 38.5887 8.07826 39.2425 8.38126C39.9004 8.68028 40.4167 9.09692 40.7915 9.63117C41.1662 10.1614 41.3596 10.7714 41.3716 11.4612H39.2366ZM45.5594 20.5274C44.9774 20.5274 44.4531 20.4238 43.9866 20.2165C43.5241 20.0051 43.1573 19.6942 42.8862 19.2835C42.6191 18.8729 42.4855 18.3665 42.4855 17.7645C42.4855 17.2462 42.5812 16.8176 42.7726 16.4787C42.964 16.1398 43.2251 15.8687 43.556 15.6654C43.8869 15.462 44.2597 15.3085 44.6743 15.2049C45.093 15.0972 45.5256 15.0195 45.9721 14.9717C46.5103 14.9158 46.9469 14.866 47.2818 14.8221C47.6167 14.7743 47.8599 14.7025 48.0114 14.6068C48.1669 14.5072 48.2446 14.3537 48.2446 14.1464V14.1105C48.2446 13.66 48.1111 13.3111 47.844 13.0639C47.5768 12.8167 47.1921 12.6931 46.6897 12.6931C46.1595 12.6931 45.7389 12.8087 45.4279 13.04C45.1209 13.2712 44.9136 13.5443 44.8059 13.8593L42.7845 13.5722C42.944 13.0141 43.2072 12.5476 43.574 12.1728C43.9408 11.7941 44.3893 11.511 44.9195 11.3236C45.4498 11.1322 46.0359 11.0366 46.6778 11.0366C47.1203 11.0366 47.5609 11.0884 47.9994 11.192C48.438 11.2957 48.8387 11.4671 49.2015 11.7064C49.5643 11.9416 49.8554 12.2625 50.0746 12.6692C50.2979 13.0759 50.4095 13.5842 50.4095 14.1942V20.342H48.3284V19.0802H48.2566C48.125 19.3353 47.9396 19.5746 47.7004 19.7978C47.4652 20.0171 47.1682 20.1945 46.8093 20.3301C46.4545 20.4616 46.0379 20.5274 45.5594 20.5274ZM46.1216 18.9366C46.5562 18.9366 46.9329 18.8509 47.2519 18.6795C47.5708 18.5041 47.816 18.2728 47.9875 17.9858C48.1629 17.6987 48.2506 17.3857 48.2506 17.0468V15.9644C48.1828 16.0202 48.0672 16.072 47.9038 16.1199C47.7443 16.1677 47.5649 16.2096 47.3655 16.2455C47.1662 16.2814 46.9688 16.3133 46.7735 16.3412C46.5781 16.3691 46.4087 16.393 46.2651 16.4129C45.9422 16.4568 45.6531 16.5285 45.398 16.6282C45.1428 16.7279 44.9415 16.8674 44.794 17.0468C44.6464 17.2223 44.5727 17.4495 44.5727 17.7286C44.5727 18.1273 44.7182 18.4283 45.0092 18.6317C45.3003 18.835 45.6711 18.9366 46.1216 18.9366ZM52.0812 23.7867V11.1562H54.2102V12.6752H54.3358C54.4474 12.4519 54.6049 12.2147 54.8082 11.9635C55.0116 11.7084 55.2867 11.4911 55.6335 11.3117C55.9804 11.1283 56.4229 11.0366 56.9612 11.0366C57.6708 11.0366 58.3107 11.218 58.8809 11.5808C59.455 11.9396 59.9095 12.4719 60.2444 13.1775C60.5833 13.8792 60.7527 14.7404 60.7527 15.7611C60.7527 16.7698 60.5873 17.6269 60.2564 18.3326C59.9255 19.0383 59.4749 19.5766 58.9048 19.9473C58.3347 20.3181 57.6888 20.5035 56.9672 20.5035C56.4409 20.5035 56.0043 20.4158 55.6574 20.2404C55.3106 20.0649 55.0315 19.8536 54.8202 19.6065C54.6129 19.3553 54.4514 19.1181 54.3358 18.8948H54.2461V23.7867H52.0812ZM54.2042 15.7491C54.2042 16.3432 54.2879 16.8634 54.4554 17.31C54.6268 17.7565 54.872 18.1054 55.191 18.3566C55.5139 18.6037 55.9046 18.7273 56.3631 18.7273C56.8416 18.7273 57.2423 18.5998 57.5652 18.3446C57.8881 18.0854 58.1313 17.7326 58.2948 17.2861C58.4623 16.8355 58.546 16.3232 58.546 15.7491C58.546 15.179 58.4642 14.6726 58.3008 14.2301C58.1373 13.7875 57.8941 13.4407 57.5712 13.1895C57.2482 12.9383 56.8456 12.8127 56.3631 12.8127C55.9007 12.8127 55.5079 12.9343 55.185 13.1775C54.8621 13.4207 54.6169 13.7616 54.4494 14.2002C54.2859 14.6387 54.2042 15.1551 54.2042 15.7491ZM62.1014 23.7867V11.1562H64.2305V12.6752H64.356C64.4677 12.4519 64.6252 12.2147 64.8285 11.9635C65.0318 11.7084 65.3069 11.4911 65.6538 11.3117C66.0006 11.1283 66.4432 11.0366 66.9814 11.0366C67.6911 11.0366 68.331 11.218 68.9011 11.5808C69.4753 11.9396 69.9298 12.4719 70.2647 13.1775C70.6036 13.8792 70.773 14.7404 70.773 15.7611C70.773 16.7698 70.6075 17.6269 70.2766 18.3326C69.9457 19.0383 69.4952 19.5766 68.9251 19.9473C68.3549 20.3181 67.709 20.5035 66.9874 20.5035C66.4611 20.5035 66.0246 20.4158 65.6777 20.2404C65.3308 20.0649 65.0518 19.8536 64.8405 19.6065C64.6331 19.3553 64.4717 19.1181 64.356 18.8948H64.2663V23.7867H62.1014ZM64.2245 15.7491C64.2245 16.3432 64.3082 16.8634 64.4757 17.31C64.6471 17.7565 64.8923 18.1054 65.2112 18.3566C65.5342 18.6037 65.9249 18.7273 66.3834 18.7273C66.8618 18.7273 67.2625 18.5998 67.5855 18.3446C67.9084 18.0854 68.1516 17.7326 68.3151 17.2861C68.4825 16.8355 68.5662 16.3232 68.5662 15.7491C68.5662 15.179 68.4845 14.6726 68.321 14.2301C68.1576 13.7875 67.9144 13.4407 67.5914 13.1895C67.2685 12.9383 66.8658 12.8127 66.3834 12.8127C65.9209 12.8127 65.5282 12.9343 65.2053 13.1775C64.8823 13.4207 64.6371 13.7616 64.4697 14.2002C64.3062 14.6387 64.2245 15.1551 64.2245 15.7491ZM74.2866 14.9597V20.342H72.1217V8.09421H74.2388V12.717H74.3464C74.5617 12.1987 74.8946 11.7901 75.3451 11.4911C75.7996 11.1881 76.3777 11.0366 77.0794 11.0366C77.7173 11.0366 78.2735 11.1701 78.748 11.4372C79.2224 11.7044 79.5892 12.0951 79.8484 12.6094C80.1115 13.1237 80.2431 13.7517 80.2431 14.4932V20.342H78.0782V14.8281C78.0782 14.2101 77.9187 13.7297 77.5997 13.3868C77.2848 13.04 76.8422 12.8666 76.2721 12.8666C75.8893 12.8666 75.5465 12.9503 75.2435 13.1177C74.9444 13.2812 74.7092 13.5184 74.5378 13.8294C74.3703 14.1404 74.2866 14.5171 74.2866 14.9597ZM82.9613 23.7867C82.6662 23.7867 82.3931 23.7628 82.142 23.715C81.8948 23.6711 81.6974 23.6193 81.5499 23.5595L82.0523 21.873C82.3672 21.9647 82.6483 22.0086 82.8955 22.0046C83.1427 22.0006 83.36 21.9229 83.5473 21.7714C83.7387 21.6238 83.9002 21.3766 84.0318 21.0298L84.2172 20.5334L80.8861 11.1562H83.1825L85.2996 18.0934H85.3953L87.5183 11.1562H89.8208L86.1428 21.4544C85.9714 21.9408 85.7441 22.3574 85.4611 22.7043C85.178 23.0551 84.8311 23.3223 84.4205 23.5057C84.0138 23.6931 83.5274 23.7867 82.9613 23.7867Z" fill="black"/>
</svg>
