<svg width="417" height="304" viewBox="0 0 417 304" fill="none" xmlns="http://www.w3.org/2000/svg">
<rect x="0.926147" width="416" height="303.746" rx="8.25397" fill="#18171F"/>
<path d="M128.626 52.8413V38.8005H133.535C134.513 38.8005 135.32 38.9696 135.955 39.3078C136.591 39.6415 137.064 40.0917 137.374 40.6584C137.685 41.2206 137.841 41.8445 137.841 42.5301C137.841 43.1334 137.733 43.6316 137.518 44.0247C137.308 44.4177 137.029 44.7285 136.682 44.9571C136.339 45.1856 135.967 45.3547 135.565 45.4644V45.6015C135.994 45.6289 136.426 45.7798 136.86 46.054C137.295 46.3282 137.658 46.7213 137.95 47.2332C138.243 47.7451 138.389 48.3713 138.389 49.1117C138.389 49.8156 138.229 50.4486 137.909 51.0108C137.589 51.573 137.084 52.0186 136.394 52.3477C135.704 52.6768 134.806 52.8413 133.7 52.8413H128.626ZM130.327 51.333H133.7C134.81 51.333 135.599 51.1182 136.065 50.6886C136.536 50.2544 136.771 49.7287 136.771 49.1117C136.771 48.6364 136.65 48.1976 136.408 47.7954C136.166 47.3886 135.821 47.0641 135.373 46.8219C134.925 46.575 134.394 46.4516 133.782 46.4516H130.327V51.333ZM130.327 44.9708H133.48C133.992 44.9708 134.454 44.8702 134.865 44.6691C135.281 44.468 135.61 44.1846 135.852 43.819C136.099 43.4533 136.223 43.0237 136.223 42.5301C136.223 41.913 136.008 41.3897 135.578 40.9601C135.149 40.5259 134.468 40.3088 133.535 40.3088H130.327V44.9708ZM144.062 53.0881C143.395 53.0881 142.789 52.9624 142.246 52.711C141.702 52.4551 141.27 52.0872 140.95 51.6073C140.63 51.1228 140.47 50.5377 140.47 49.8521C140.47 49.2488 140.589 48.7598 140.826 48.385C141.064 48.0056 141.382 47.7085 141.779 47.4937C142.177 47.2789 142.616 47.1189 143.096 47.0138C143.58 46.9041 144.067 46.8173 144.556 46.7533C145.196 46.671 145.715 46.6093 146.112 46.5682C146.515 46.5225 146.807 46.4471 146.99 46.3419C147.177 46.2368 147.271 46.054 147.271 45.7935V45.7386C147.271 45.0622 147.086 44.5366 146.716 44.1618C146.35 43.787 145.795 43.5996 145.05 43.5996C144.277 43.5996 143.672 43.7687 143.233 44.1069C142.794 44.4451 142.486 44.8062 142.307 45.1902L140.772 44.6417C141.046 44.0018 141.411 43.5036 141.869 43.1471C142.33 42.786 142.833 42.5346 143.377 42.393C143.925 42.2467 144.465 42.1736 144.995 42.1736C145.333 42.1736 145.722 42.2147 146.16 42.297C146.604 42.3747 147.031 42.5369 147.442 42.7837C147.858 43.0306 148.203 43.4031 148.478 43.9012C148.752 44.3994 148.889 45.0667 148.889 45.9032V52.8413H147.271V51.4153H147.189C147.079 51.6438 146.896 51.8883 146.64 52.1489C146.384 52.4094 146.044 52.6311 145.619 52.8139C145.194 52.9967 144.675 53.0881 144.062 53.0881ZM144.309 51.6347C144.949 51.6347 145.488 51.509 145.927 51.2576C146.371 51.0062 146.704 50.6817 146.928 50.2841C147.157 49.8864 147.271 49.4682 147.271 49.0294V47.5486C147.202 47.6308 147.052 47.7063 146.818 47.7748C146.59 47.8388 146.325 47.8959 146.023 47.9462C145.726 47.9919 145.436 48.0331 145.152 48.0696C144.874 48.1016 144.647 48.129 144.474 48.1519C144.053 48.2067 143.66 48.2959 143.295 48.4193C142.933 48.5381 142.641 48.7186 142.417 48.9609C142.198 49.1986 142.088 49.5231 142.088 49.9344C142.088 50.4966 142.296 50.9217 142.712 51.2096C143.132 51.493 143.665 51.6347 144.309 51.6347ZM153.46 38.8005V52.8413H151.842V38.8005H153.46ZM159.522 53.0881C158.855 53.0881 158.249 52.9624 157.706 52.711C157.162 52.4551 156.73 52.0872 156.41 51.6073C156.09 51.1228 155.93 50.5377 155.93 49.8521C155.93 49.2488 156.049 48.7598 156.286 48.385C156.524 48.0056 156.842 47.7085 157.239 47.4937C157.637 47.2789 158.076 47.1189 158.556 47.0138C159.04 46.9041 159.527 46.8173 160.016 46.7533C160.656 46.671 161.175 46.6093 161.572 46.5682C161.975 46.5225 162.267 46.4471 162.45 46.3419C162.637 46.2368 162.731 46.054 162.731 45.7935V45.7386C162.731 45.0622 162.546 44.5366 162.176 44.1618C161.81 43.787 161.255 43.5996 160.51 43.5996C159.737 43.5996 159.132 43.7687 158.693 44.1069C158.254 44.4451 157.946 44.8062 157.767 45.1902L156.232 44.6417C156.506 44.0018 156.871 43.5036 157.329 43.1471C157.79 42.786 158.293 42.5346 158.837 42.393C159.385 42.2467 159.925 42.1736 160.455 42.1736C160.793 42.1736 161.182 42.2147 161.62 42.297C162.064 42.3747 162.491 42.5369 162.902 42.7837C163.318 43.0306 163.663 43.4031 163.938 43.9012C164.212 44.3994 164.349 45.0667 164.349 45.9032V52.8413H162.731V51.4153H162.649C162.539 51.6438 162.356 51.8883 162.1 52.1489C161.844 52.4094 161.504 52.6311 161.079 52.8139C160.654 52.9967 160.135 53.0881 159.522 53.0881ZM159.769 51.6347C160.409 51.6347 160.948 51.509 161.387 51.2576C161.831 51.0062 162.164 50.6817 162.388 50.2841C162.617 49.8864 162.731 49.4682 162.731 49.0294V47.5486C162.662 47.6308 162.512 47.7063 162.278 47.7748C162.05 47.8388 161.785 47.8959 161.483 47.9462C161.186 47.9919 160.896 48.0331 160.612 48.0696C160.334 48.1016 160.107 48.129 159.934 48.1519C159.513 48.2067 159.12 48.2959 158.755 48.4193C158.393 48.5381 158.101 48.7186 157.877 48.9609C157.658 49.1986 157.548 49.5231 157.548 49.9344C157.548 50.4966 157.756 50.9217 158.172 51.2096C158.592 51.493 159.125 51.6347 159.769 51.6347ZM168.92 46.5065V52.8413H167.302V42.3107H168.865V43.9561H169.002C169.249 43.4213 169.624 42.9917 170.127 42.6672C170.629 42.3381 171.279 42.1736 172.074 42.1736C172.787 42.1736 173.411 42.3198 173.945 42.6123C174.48 42.9003 174.896 43.3391 175.193 43.9287C175.49 44.5137 175.639 45.2541 175.639 46.15V52.8413H174.021V46.2597C174.021 45.4324 173.806 44.7879 173.376 44.3263C172.947 43.8601 172.357 43.627 171.608 43.627C171.091 43.627 170.629 43.739 170.223 43.963C169.82 44.1869 169.503 44.5137 169.27 44.9433C169.037 45.373 168.92 45.894 168.92 46.5065ZM182.874 53.0607C181.886 53.0607 181.036 52.8276 180.323 52.3614C179.61 51.8952 179.062 51.253 178.678 50.4349C178.294 49.6168 178.102 48.6821 178.102 47.6308C178.102 46.5613 178.298 45.6175 178.691 44.7994C179.089 43.9767 179.642 43.3345 180.351 42.8729C181.064 42.4067 181.895 42.1736 182.846 42.1736C183.587 42.1736 184.254 42.3107 184.848 42.5849C185.442 42.8592 185.929 43.2431 186.308 43.7367C186.688 44.2303 186.923 44.8062 187.014 45.4644H185.396C185.273 44.9845 184.999 44.5594 184.574 44.1892C184.153 43.8144 183.587 43.627 182.874 43.627C182.243 43.627 181.69 43.7916 181.214 44.1206C180.744 44.4451 180.376 44.9045 180.111 45.4987C179.85 46.0883 179.72 46.7807 179.72 47.576C179.72 48.3896 179.848 49.098 180.104 49.7013C180.364 50.3046 180.73 50.7731 181.201 51.1068C181.676 51.4404 182.234 51.6073 182.874 51.6073C183.294 51.6073 183.676 51.5341 184.018 51.3879C184.361 51.2416 184.651 51.0314 184.889 50.7571C185.127 50.4829 185.296 50.1538 185.396 49.7699H187.014C186.923 50.3915 186.697 50.9514 186.336 51.4496C185.979 51.9432 185.506 52.3363 184.917 52.6288C184.332 52.9167 183.651 53.0607 182.874 53.0607ZM193.795 53.0607C192.78 53.0607 191.905 52.8367 191.169 52.3888C190.438 51.9363 189.873 51.3056 189.476 50.4966C189.083 49.683 188.886 48.7369 188.886 47.6583C188.886 46.5796 189.083 45.6289 189.476 44.8062C189.873 43.9789 190.426 43.3345 191.135 42.8729C191.848 42.4067 192.68 42.1736 193.63 42.1736C194.179 42.1736 194.72 42.265 195.255 42.4478C195.79 42.6306 196.277 42.9277 196.716 43.3391C197.154 43.7458 197.504 44.2852 197.764 44.9571C198.025 45.6289 198.155 46.4562 198.155 47.4389V48.1245H190.038V46.7259H196.51C196.51 46.1317 196.391 45.6015 196.153 45.1353C195.92 44.6691 195.587 44.3012 195.152 44.0315C194.723 43.7618 194.215 43.627 193.63 43.627C192.986 43.627 192.428 43.787 191.958 44.1069C191.491 44.4223 191.133 44.8336 190.881 45.341C190.63 45.8483 190.504 46.3922 190.504 46.9727V47.9051C190.504 48.7004 190.641 49.3745 190.915 49.9276C191.194 50.476 191.58 50.8942 192.074 51.1822C192.568 51.4656 193.141 51.6073 193.795 51.6073C194.22 51.6073 194.604 51.5478 194.947 51.429C195.294 51.3056 195.593 51.1228 195.845 50.8805C196.096 50.6337 196.29 50.3275 196.428 49.9618L197.991 50.4006C197.826 50.9308 197.55 51.397 197.161 51.7992C196.773 52.1969 196.293 52.5077 195.721 52.7316C195.15 52.951 194.508 53.0607 193.795 53.0607ZM218.113 45.8209C218.113 47.3018 217.845 48.5815 217.311 49.6602C216.776 50.7388 216.042 51.5707 215.11 52.1557C214.177 52.7408 213.112 53.0333 211.915 53.0333C210.717 53.0333 209.653 52.7408 208.72 52.1557C207.788 51.5707 207.054 50.7388 206.519 49.6602C205.985 48.5815 205.717 47.3018 205.717 45.8209C205.717 44.34 205.985 43.0603 206.519 41.9816C207.054 40.9029 207.788 40.0711 208.72 39.4861C209.653 38.901 210.717 38.6085 211.915 38.6085C213.112 38.6085 214.177 38.901 215.11 39.4861C216.042 40.0711 216.776 40.9029 217.311 41.9816C217.845 43.0603 218.113 44.34 218.113 45.8209ZM216.467 45.8209C216.467 44.6051 216.264 43.579 215.857 42.7426C215.455 41.9062 214.909 41.2732 214.219 40.8435C213.533 40.4139 212.765 40.1991 211.915 40.1991C211.065 40.1991 210.295 40.4139 209.605 40.8435C208.919 41.2732 208.373 41.9062 207.966 42.7426C207.564 43.579 207.363 44.6051 207.363 45.8209C207.363 47.0367 207.564 48.0628 207.966 48.8992C208.373 49.7356 208.919 50.3686 209.605 50.7983C210.295 51.2279 211.065 51.4427 211.915 51.4427C212.765 51.4427 213.533 51.2279 214.219 50.7983C214.909 50.3686 215.455 49.7356 215.857 48.8992C216.264 48.0628 216.467 47.0367 216.467 45.8209ZM229.363 42.3107L225.469 52.8413H223.824L219.93 42.3107H221.685L224.591 50.7023H224.701L227.608 42.3107H229.363ZM235.537 53.0607C234.522 53.0607 233.647 52.8367 232.911 52.3888C232.18 51.9363 231.615 51.3056 231.218 50.4966C230.825 49.683 230.628 48.7369 230.628 47.6583C230.628 46.5796 230.825 45.6289 231.218 44.8062C231.615 43.9789 232.168 43.3345 232.877 42.8729C233.59 42.4067 234.422 42.1736 235.372 42.1736C235.921 42.1736 236.462 42.265 236.997 42.4478C237.532 42.6306 238.019 42.9277 238.458 43.3391C238.896 43.7458 239.246 44.2852 239.506 44.9571C239.767 45.6289 239.897 46.4562 239.897 47.4389V48.1245H231.78V46.7259H238.252C238.252 46.1317 238.133 45.6015 237.895 45.1353C237.662 44.6691 237.329 44.3012 236.894 44.0315C236.465 43.7618 235.957 43.627 235.372 43.627C234.728 43.627 234.17 43.787 233.7 44.1069C233.233 44.4223 232.875 44.8336 232.623 45.341C232.372 45.8483 232.246 46.3922 232.246 46.9727V47.9051C232.246 48.7004 232.383 49.3745 232.657 49.9276C232.936 50.476 233.322 50.8942 233.816 51.1822C234.31 51.4656 234.883 51.6073 235.537 51.6073C235.962 51.6073 236.346 51.5478 236.689 51.429C237.036 51.3056 237.335 51.1228 237.587 50.8805C237.838 50.6337 238.032 50.3275 238.17 49.9618L239.733 50.4006C239.568 50.9308 239.292 51.397 238.903 51.7992C238.515 52.1969 238.035 52.5077 237.463 52.7316C236.892 52.951 236.25 53.0607 235.537 53.0607ZM242.358 52.8413V42.3107H243.922V43.9012H244.031C244.223 43.3802 244.571 42.9574 245.073 42.6329C245.576 42.3084 246.143 42.1461 246.774 42.1461C246.893 42.1461 247.041 42.1484 247.219 42.153C247.398 42.1576 247.532 42.1644 247.624 42.1736V43.819C247.569 43.8053 247.443 43.7847 247.247 43.7573C247.055 43.7253 246.851 43.7093 246.637 43.7093C246.125 43.7093 245.668 43.8167 245.265 44.0315C244.868 44.2418 244.552 44.5343 244.319 44.9091C244.091 45.2793 243.976 45.7021 243.976 46.1774V52.8413H242.358ZM258.473 42.3107L254.579 52.8413H252.934L249.04 42.3107H250.795L253.702 50.7023H253.811L256.718 42.3107H258.473ZM260.609 52.8413V42.3107H262.227V52.8413H260.609ZM261.432 40.5556C261.116 40.5556 260.844 40.4482 260.616 40.2334C260.392 40.0185 260.28 39.7603 260.28 39.4586C260.28 39.157 260.392 38.8987 260.616 38.6839C260.844 38.4691 261.116 38.3617 261.432 38.3617C261.747 38.3617 262.017 38.4691 262.241 38.6839C262.469 38.8987 262.583 39.157 262.583 39.4586C262.583 39.7603 262.469 40.0185 262.241 40.2334C262.017 40.4482 261.747 40.5556 261.432 40.5556ZM269.605 53.0607C268.591 53.0607 267.716 52.8367 266.98 52.3888C266.248 51.9363 265.684 51.3056 265.286 50.4966C264.893 49.683 264.697 48.7369 264.697 47.6583C264.697 46.5796 264.893 45.6289 265.286 44.8062C265.684 43.9789 266.237 43.3345 266.945 42.8729C267.658 42.4067 268.49 42.1736 269.441 42.1736C269.989 42.1736 270.531 42.265 271.066 42.4478C271.601 42.6306 272.087 42.9277 272.526 43.3391C272.965 43.7458 273.314 44.2852 273.575 44.9571C273.836 45.6289 273.966 46.4562 273.966 47.4389V48.1245H265.848V46.7259H272.32C272.32 46.1317 272.202 45.6015 271.964 45.1353C271.731 44.6691 271.397 44.3012 270.963 44.0315C270.533 43.7618 270.026 43.627 269.441 43.627C268.796 43.627 268.239 43.787 267.768 44.1069C267.302 44.4223 266.943 44.8336 266.692 45.341C266.44 45.8483 266.315 46.3922 266.315 46.9727V47.9051C266.315 48.7004 266.452 49.3745 266.726 49.9276C267.005 50.476 267.391 50.8942 267.885 51.1822C268.378 51.4656 268.952 51.6073 269.605 51.6073C270.031 51.6073 270.414 51.5478 270.757 51.429C271.105 51.3056 271.404 51.1228 271.655 50.8805C271.907 50.6337 272.101 50.3275 272.238 49.9618L273.801 50.4006C273.637 50.9308 273.36 51.397 272.972 51.7992C272.583 52.1969 272.103 52.5077 271.532 52.7316C270.961 52.951 270.318 53.0607 269.605 53.0607ZM278.813 52.8413L275.604 42.3107H277.305L279.581 50.3732H279.69L281.939 42.3107H283.667L285.888 50.3458H285.998L288.274 42.3107H289.974L286.766 52.8413H285.175L282.872 44.7514H282.707L280.403 52.8413H278.813Z" fill="white"/>
<rect x="87.469" y="194.975" width="26.9905" height="28.34" rx="1.4236" fill="#7D8BF7"/>
<path d="M100.017 229.537L100.017 98.0458" stroke="#7D8BF7" stroke-width="2.84719" stroke-linecap="round"/>
<rect x="141.45" y="228.039" width="26.9905" height="3.37381" rx="1.4236" fill="#7D8BF7"/>
<path d="M153.998 229.537L153.998 98.0458" stroke="#7D8BF7" stroke-width="2.84719" stroke-linecap="round"/>
<rect x="195.431" y="109.956" width="26.9905" height="107.962" rx="1.4236" fill="#7D8BF7"/>
<path d="M207.979 229.537L207.979 98.0458" stroke="#7D8BF7" stroke-width="2.84719" stroke-linecap="round"/>
<rect x="249.412" y="140.994" width="26.9905" height="45.8838" rx="1.4236" fill="#7D8BF7"/>
<path d="M261.96 229.537L261.96 98.0458" stroke="#7D8BF7" stroke-width="2.84719" stroke-linecap="round"/>
<rect x="303.393" y="162.587" width="26.9905" height="2.69905" rx="1.34953" fill="#7D8BF7"/>
<path d="M315.941 229.537L315.941 98.0458" stroke="#7D8BF7" stroke-width="2.84719" stroke-linecap="round"/>
</svg>
